<svg width="80" height="80" viewBox="0 0 80 80" fill="none" xmlns="http://www.w3.org/2000/svg">
<g clip-path="url(#clip0_2_31)">
<path d="M46.09 79.98C45.48 79.98 44.85 79.86 44.2 79.62C41.87 78.75 40.37 77.07 39.05 75.58C38.47 74.94 37.95 74.35 37.45 73.93C35.75 72.52 33.88 71.33 31.88 70.4C28.71 68.93 25.26 67.83 21.93 66.77L21.06 66.49C18.36 65.63 15.56 64.83 12.73 64.12C12.5 64.06 12.18 64.02 11.86 63.97C10.81 63.81 9.51999 63.61 8.38999 62.96C7.87999 62.67 7.39999 62.42 6.93999 62.17C4.33999 60.78 1.67999 59.35 0.28999 54.69C-0.16001 53.18 -0.640009 49.48 4.07999 46.53C5.25999 41.97 7.40999 40.06 9.15999 39.28C10.13 38.41 11.44 37.76 13.09 37.35C12.6 37.15 12.15 36.89 11.74 36.55C8.86999 34.17 8.82999 29.38 11.6 20.55C12.5 17.68 14.28 15.12 16.91 12.92C17.49 8.09999 18.37 6.77999 18.67 6.33999C18.89 6.00999 19.05 5.73999 19.18 5.51999L19.24 5.41999C19.57 4.83999 20.61 3.03999 22.69 3.03999C23.68 3.03999 24.57 3.45999 25.38 3.90999C25.66 4.06999 26.01 4.25999 26.45 4.47999C26.92 4.71999 27.55 5.11999 28.68 6.13999C29.27 5.60999 30.07 5.21999 31.01 5.03999C31.33 4.97999 31.65 4.94999 31.97 4.94999C33.22 4.94999 34.27 5.39999 34.93 6.14999C36.28 6.01999 37.63 5.94999 38.96 5.94999C39.35 5.94999 39.74 5.94999 40.12 5.96999C42.38 6.03999 44.57 6.53999 46.66 7.46999L53.27 0.92999C53.88 0.32999 54.69 -0.0100098 55.55 -0.0100098C55.64 -0.0100098 55.73 -0.0100098 55.82 -9.76585e-06C55.89 -9.76585e-06 55.96 -9.76585e-06 56.04 -9.76585e-06C57.06 -9.76585e-06 58.04 0.48999 58.65 1.31999C58.83 1.55999 62.85 7.10999 61.6 17.33C65.87 17.81 68.89 18.63 69.46 18.79C72.88 19.58 74.96 21.4 75.19 23.79C75.54 27.48 71.35 29.35 69.97 29.96C67.95 30.86 66 31.59 64.14 32.16C64.84 35.3 65.05 38.1 65.11 39.62C65.15 39.68 65.18 39.75 65.22 39.81C68.25 38.46 72.51 36.88 75.8 36.88C76.48 36.88 77.11 36.95 77.68 37.08C79.22 37.44 80.19 38.99 79.86 40.55C79.56 41.9 78.4 42.84 77.04 42.84C76.82 42.84 76.6 42.82 76.39 42.76C76.28 42.74 76.08 42.7 75.77 42.7C74.35 42.7 72.27 43.29 70.17 44.07C72.9 44.49 75.4 45.19 76.04 45.38C77.56 45.82 78.44 47.43 78.02 48.96C77.68 50.21 76.54 51.09 75.24 51.09C75.07 51.09 74.9 51.08 74.73 51.05C75.69 51.66 76.29 52.09 76.31 52.1C77.59 52.99 77.92 54.79 77.05 56.11C76.51 56.92 75.61 57.4 74.65 57.4C74.06 57.4 73.49 57.22 73.01 56.88C71.46 55.79 68.67 54.08 66.44 53.11C65.29 55.47 63.57 56.95 62.51 57.7C59.47 62.78 54.88 64.52 52.38 65.11L48.7 70.06C50.12 72.14 51.28 74.71 50.5 76.97C49.96 78.52 48.67 79.59 46.95 79.91C46.68 79.96 46.39 79.99 46.11 79.99L46.09 79.98Z" fill="#F4F4F4"/>
<path d="M77.2 39.05C73.6 38.22 66.96 41.17 64.27 42.47C63.94 41.72 63.54 40.97 63.08 40.2C63.05 38.95 62.86 34.95 61.67 30.73C63.5 30.28 66.02 29.49 69.13 28.11C70.95 27.3 73.35 25.99 73.16 23.98C72.96 21.85 69.92 20.98 68.94 20.75C68.48 20.62 64.58 19.54 59.26 19.15C61.26 8.43998 57.19 2.76998 57.01 2.51998C56.72 2.11998 56.24 1.95998 55.8 2.04998C55.41 1.96998 55 2.07998 54.69 2.37998L47.06 9.92998C44.85 8.72998 42.5 8.07998 40.06 7.99998C37.9 7.93998 35.71 8.05998 33.56 8.34998C33.61 8.19998 33.63 8.04998 33.6 7.90998C33.48 7.21998 32.48 6.81998 31.37 7.02998C30.26 7.23998 29.46 7.96998 29.59 8.65998C29.61 8.79998 29.68 8.92998 29.78 9.04998C29.52 9.10998 29.26 9.17998 29 9.24998C26.85 7.08998 25.99 6.51998 25.53 6.27998C25.07 6.03998 24.69 5.83998 24.4 5.66998C22.81 4.78998 21.99 4.69998 20.98 6.43998C20.82 6.70998 20.63 7.04998 20.35 7.45998C19.48 8.76998 19.02 12.12 18.82 13.98C16.15 16.03 14.37 18.45 13.52 21.16C10.34 31.29 11.72 33.91 13.03 35C13.66 35.52 14.38 35.72 15.11 35.72C15.16 35.72 15.2 35.72 15.25 35.72C15.34 36.86 15.37 37.96 15.34 39.01C12.97 39.31 11.27 39.98 10.28 41.02C8.84 41.54 7.06 43.05 6.02 47.1C5.96 47.34 5.91 47.59 5.88 47.84C1.75 50.05 1.8 52.7 2.22 54.12C3.37 57.97 5.35 59.03 7.86 60.38C8.35 60.64 8.85 60.91 9.39 61.22C10.19 61.68 11.24 61.84 12.15 61.98C12.55 62.04 12.92 62.1 13.21 62.17C16.1 62.9 18.94 63.7 21.66 64.57L22.53 64.85C25.94 65.93 29.46 67.05 32.72 68.57C34.88 69.57 36.9 70.86 38.73 72.38C39.35 72.9 39.93 73.55 40.55 74.24C41.77 75.61 43.04 77.03 44.9 77.73C45.32 77.89 45.71 77.97 46.08 77.97C46.24 77.97 46.39 77.95 46.54 77.93C47.89 77.68 48.38 76.81 48.55 76.32C49.26 74.27 47.07 71.24 46.14 70.08L51.17 63.3C52.87 63 57.92 61.69 60.95 56.3C61.87 55.72 64.31 53.9 65.21 50.57C68.04 51.28 72.46 54.08 74.12 55.25C74.27 55.35 74.44 55.4 74.61 55.4C74.89 55.4 75.16 55.26 75.32 55.01C75.59 54.6 75.49 54.05 75.09 53.78C74.83 53.59 69.3 49.75 65.5 48.82C65.53 48.42 65.54 48.02 65.53 47.61C68.29 47.36 73.11 48.52 74.95 49.06C75.03 49.08 75.11 49.09 75.19 49.09C75.57 49.09 75.91 48.84 76.02 48.45C76.15 47.98 75.89 47.49 75.43 47.35C74.71 47.14 68.96 45.5 65.34 45.85C65.23 45.29 65.09 44.72 64.9 44.15C67.96 42.65 73.95 40.15 76.81 40.81C77.27 40.92 77.74 40.62 77.84 40.14C77.94 39.66 77.65 39.19 77.18 39.08L77.2 39.05Z" fill="#F4F4F4"/>
<path d="M37.82 22.83C35.03 19.56 30.87 14.77 27.79 11.61C27.77 11.59 27.76 11.58 27.74 11.56C25.46 9.22001 24.65 8.68001 24.41 8.56001C23.91 8.30001 23.52 8.09001 23.21 7.91001C23.16 7.88001 23.1 7.85001 23.05 7.82001C22.89 8.10001 22.68 8.46001 22.38 8.90001C22.1 9.31001 21.54 11.28 21.22 14.8C20.77 19.55 20.89 26.03 22.52 29.75C26.75 27.63 32.42 24.95 37.83 22.83H37.82ZM23.37 10.36C23.69 9.49001 24.43 9.81001 24.43 9.81001L25.82 11.58L32.32 19.89C33.32 21.16 32.75 23.07 31.23 23.56L28.39 24.48C27.11 24.89 25.77 24.09 25.49 22.75C24.65 18.68 23.13 11 23.36 10.36H23.37Z" fill="#F4F4F4"/>
<path d="M53.14 15.08C53.85 12.27 54.9 8.16001 55.11 7.82001C55.42 7.31001 55.6 7.61001 55.6 7.61001L55.89 15.09C55.92 15.97 55.36 17.03 54.77 17.26C55.16 17.83 55.53 18.42 55.88 19.01C56.17 19.01 56.46 19.01 56.76 19.02C58.21 11.67 56.52 6.93001 55.58 5.01001L49.21 11.31C50.6 12.34 51.92 13.6 53.14 15.08Z" fill="#F4F4F4"/>
<path d="M60.61 40.57C60.61 40.51 60.6 38.32 60.14 35.44L58.29 34.89L58.7 36.69C58.86 37.37 58.45 38.05 57.78 38.21C57.68 38.23 57.59 38.25 57.49 38.25C56.93 38.25 56.42 37.86 56.29 37.27L55.95 35.8L55.25 36.64C55.01 36.94 54.66 37.09 54.31 37.09C54.03 37.09 53.75 36.99 53.51 36.79C52.99 36.34 52.92 35.54 53.36 35L55.64 32.24C55.64 32.24 55.65 32.23 55.66 32.22C55.68 32.2 55.7 32.18 55.72 32.16C55.75 32.13 55.78 32.1 55.82 32.07C55.84 32.05 55.86 32.03 55.89 32.02C55.94 31.98 55.99 31.95 56.05 31.93C56.07 31.93 56.08 31.91 56.1 31.91C56.16 31.88 56.22 31.86 56.28 31.84C56.29 31.84 56.3 31.84 56.31 31.83C56.32 31.83 56.33 31.83 56.35 31.83C56.4 31.82 56.46 31.81 56.52 31.81C56.54 31.81 56.56 31.81 56.58 31.81C56.65 31.81 56.72 31.81 56.79 31.83C56.81 31.83 56.84 31.84 56.86 31.85C56.89 31.85 56.92 31.86 56.95 31.87L59.6 32.65C59.41 31.87 59.19 31.08 58.93 30.29C58.93 30.26 58.91 30.23 58.9 30.2C57.65 26.47 55.49 22.9 51.76 21.74C50.14 21.89 48.56 22.14 47.08 22.48C45.22 22.91 42.96 23.62 40.36 24.59C34.11 26.91 27.22 30.21 22.54 32.58C20.2 33.77 19.24 34.28 19.11 34.35C18.8 34.54 18.29 34.83 17.68 35.1C17.84 36.91 17.87 38.65 17.75 40.27C17.5 43.78 16.62 46.3 15.78 47.97C20.38 52.07 27.15 56.67 27.8 57.1C29.05 57.76 30.35 58.5 31.89 59.4C35.84 61.71 38.79 63.65 41.45 65.66C42.61 66.54 43.59 67.37 44.44 68.2L49.53 61.34C49.74 61.06 50.06 60.88 50.41 60.85C50.64 60.83 56.06 60.26 58.97 54.77C59.09 54.55 59.27 54.37 59.49 54.25C59.51 54.23 62.09 52.82 62.87 49.82C63.51 47.37 62.82 44.49 60.82 41.27C60.69 41.07 60.63 40.83 60.63 40.59L60.61 40.57ZM27.22 43.79C26.74 43.83 26.33 43.46 26.3 42.97C26.27 42.48 26.63 42.06 27.1 42.02C32.9 41.61 44.38 44.69 44.87 44.82C45.33 44.94 45.61 45.43 45.49 45.9C45.39 46.3 45.04 46.56 44.65 46.56C44.58 46.56 44.5 46.56 44.43 46.53C44.31 46.5 32.74 43.39 27.22 43.79ZM31.26 53.1C31.1 53.22 30.92 53.27 30.74 53.27C30.48 53.27 30.21 53.15 30.04 52.91C29.76 52.52 29.84 51.96 30.22 51.67C33.88 48.88 44.16 48.23 44.6 48.21C45.07 48.18 45.49 48.55 45.51 49.04C45.54 49.53 45.17 49.95 44.7 49.98C44.6 49.98 34.5 50.62 31.25 53.1H31.26ZM45.07 53.56C43.38 54.07 38.67 55.88 37.22 58.1C37.05 58.36 36.78 58.5 36.5 58.5C36.33 58.5 36.17 58.45 36.02 58.35C35.62 58.08 35.52 57.53 35.78 57.12C37.87 53.91 44.31 51.95 44.58 51.86C45.04 51.72 45.52 51.99 45.65 52.46C45.78 52.93 45.52 53.42 45.06 53.56H45.07ZM49.32 36.43C49 37.05 48.25 37.29 47.65 36.96L44.93 35.49L45.17 38.4C45.23 39.1 44.72 39.71 44.04 39.77C44.01 39.77 43.97 39.77 43.94 39.77C43.3 39.77 42.76 39.27 42.71 38.61L42.45 35.46L38.35 38.07C38.15 38.2 37.92 38.26 37.7 38.26C37.29 38.26 36.88 38.05 36.65 37.66C36.29 37.06 36.47 36.28 37.05 35.91L42.87 32.21C42.87 32.21 42.9 32.19 42.92 32.18C42.94 32.17 42.95 32.16 42.97 32.15C43.03 32.12 43.1 32.09 43.17 32.07C43.17 32.07 43.18 32.07 43.19 32.07C43.26 32.05 43.32 32.04 43.39 32.03C43.39 32.03 43.41 32.03 43.42 32.03C43.42 32.03 43.43 32.03 43.44 32.03C43.51 32.03 43.58 32.03 43.66 32.03C43.68 32.03 43.69 32.03 43.7 32.03C43.76 32.03 43.82 32.05 43.87 32.07C43.89 32.07 43.9 32.07 43.92 32.09C43.98 32.11 44.04 32.14 44.09 32.17L48.81 34.72C49.41 35.05 49.65 35.81 49.33 36.43H49.32ZM59.28 45.62C58.95 48.4 60.51 49.13 60.6 49.17C61.04 49.35 61.25 49.86 61.08 50.31C60.91 50.77 60.41 50.99 59.96 50.82C59.87 50.78 58.39 50.17 57.77 48.23C57.66 48.53 57.52 48.82 57.34 49.09C56.15 50.92 53.87 51.22 53.78 51.23C53.74 51.23 53.71 51.23 53.67 51.23C53.24 51.23 52.87 50.9 52.81 50.45C52.75 49.96 53.09 49.52 53.56 49.46C53.58 49.46 55.15 49.23 55.89 48.09C56.29 47.47 56.39 46.66 56.19 45.67C53.88 44.54 54.03 43.78 54.11 43.41C54.31 42.41 55.54 42.4 56.09 42.4L58.78 42.27C58.78 42.27 58.81 42.27 58.83 42.27C59.33 42.27 60.66 42.27 60.92 43.31C60.99 43.59 61.2 44.42 59.29 45.6L59.28 45.62Z" fill="#F4F4F4"/>
<path d="M45.37 20.27C44.39 19.76 43.71 18.71 43.71 17.51C43.71 15.8 45.07 14.41 46.73 14.41C48.39 14.41 49.76 15.8 49.76 17.51C49.76 18.26 49.5 18.96 49.06 19.49C49.95 19.35 50.85 19.24 51.77 19.17H51.79C52.19 19.14 52.59 19.11 52.99 19.09C52.81 18.81 52.62 18.53 52.43 18.26C52.26 18.02 52.07 17.76 51.86 17.48C50.26 15.4 48.49 13.75 46.61 12.59C44.52 11.3 42.29 10.61 39.98 10.54C36.99 10.45 33.94 10.74 31.02 11.37C34.17 14.73 37.91 19.08 40.3 21.89C42.17 21.22 43.86 20.67 45.36 20.27H45.37Z" fill="#FAAB00"/>
<path d="M17.92 32.1C17.92 32.1 18.59 31.73 20.29 30.86C18.77 27.43 18.37 22.24 18.55 17.56C17.26 18.9 16.35 20.37 15.86 21.94C12.92 31.32 14.39 32.88 14.57 33.03C14.93 33.32 15.98 33.24 17.88 32.12C17.88 32.12 17.9 32.11 17.91 32.1H17.92Z" fill="#FAAB00"/>
<path d="M39.97 67.68C37.39 65.72 34.51 63.84 30.65 61.58C29.12 60.68 27.83 59.96 26.59 59.3C26.55 59.28 26.52 59.26 26.48 59.24C26.15 59.02 18.28 53.73 13.36 49.16C13.36 49.16 13.35 49.15 13.34 49.14C11.39 47.32 10.18 45.9 9.63999 44.71C9.14999 45.46 8.72999 46.48 8.39999 47.75C8.31999 48.06 8.27999 48.36 8.27999 48.67C8.25999 52.87 15.85 56.18 18.78 57.11C19.43 57.32 19.8 58.03 19.6 58.69C19.44 59.24 18.95 59.59 18.42 59.59C18.3 59.59 18.18 59.57 18.06 59.53C17.94 59.49 15.05 58.57 12.11 56.87C8.84999 54.97 6.84999 52.88 6.11999 50.63C5.04999 51.36 4.24999 52.3 4.56999 53.39C5.41999 56.23 6.60999 56.87 8.98999 58.14C9.46999 58.39 10.01 58.69 10.58 59.01C10.99 59.25 11.8 59.37 12.51 59.48C12.96 59.55 13.39 59.62 13.79 59.72C16.73 60.46 19.62 61.28 22.38 62.16L23.25 62.44C26.73 63.55 30.32 64.69 33.73 66.27C36.08 67.36 38.29 68.76 40.28 70.42C41.05 71.06 41.72 71.81 42.37 72.54C43.44 73.74 44.45 74.87 45.73 75.35C45.99 75.45 46.08 75.43 46.08 75.43C46.14 75.42 46.18 75.41 46.21 75.4C46.25 74.82 45.37 73.07 44.08 71.51C43.04 70.25 41.72 69.04 39.95 67.69L39.97 67.68Z" fill="#B617E6"/>
<path d="M77.2 39.05C73.6 38.22 66.96 41.17 64.27 42.47C63.94 41.72 63.54 40.97 63.08 40.2C63.05 38.95 62.86 34.95 61.67 30.73C63.5 30.28 66.02 29.49 69.13 28.11C70.95 27.3 73.35 25.99 73.16 23.98C72.96 21.85 69.92 20.98 68.94 20.75C68.48 20.62 64.58 19.54 59.26 19.15C61.26 8.43998 57.19 2.76998 57.01 2.51998C56.72 2.11998 56.24 1.95998 55.8 2.04998C55.41 1.96998 55 2.07998 54.69 2.37998L47.06 9.92998C44.85 8.72998 42.5 8.07998 40.06 7.99998C37.9 7.93998 35.71 8.05998 33.56 8.35998C33.61 8.20998 33.63 8.05998 33.6 7.91998C33.48 7.22998 32.48 6.82998 31.37 7.03998C30.26 7.24998 29.46 7.97998 29.59 8.66998C29.61 8.80998 29.68 8.93998 29.78 9.05998C29.52 9.11998 29.26 9.18998 29 9.25998C26.85 7.09998 25.99 6.52998 25.53 6.28998C25.07 6.04998 24.69 5.84998 24.4 5.67998C22.81 4.79998 21.99 4.70998 20.98 6.44998C20.82 6.71998 20.63 7.05998 20.35 7.46998C19.48 8.77998 19.02 12.13 18.82 13.99C16.15 16.04 14.37 18.46 13.52 21.17C10.34 31.3 11.72 33.92 13.03 35.01C13.66 35.53 14.38 35.73 15.11 35.73C15.16 35.73 15.2 35.73 15.25 35.73C15.34 36.87 15.37 37.97 15.34 39.02C12.97 39.32 11.27 39.99 10.28 41.03C8.84 41.55 7.06 43.06 6.02 47.11C5.96 47.35 5.91 47.6 5.88 47.85C1.75 50.06 1.8 52.71 2.22 54.13C3.37 57.98 5.35 59.04 7.86 60.39C8.35 60.65 8.85 60.92 9.39 61.23C10.19 61.69 11.24 61.85 12.16 61.99C12.56 62.05 12.93 62.11 13.22 62.18C16.11 62.91 18.95 63.71 21.67 64.58L22.54 64.86C25.95 65.94 29.47 67.06 32.73 68.58C34.89 69.58 36.91 70.86 38.74 72.39C39.36 72.91 39.94 73.56 40.56 74.25C41.78 75.62 43.05 77.04 44.91 77.74C45.33 77.9 45.72 77.98 46.09 77.98C46.25 77.98 46.4 77.96 46.55 77.94C47.9 77.69 48.39 76.82 48.56 76.33C49.27 74.28 47.08 71.25 46.15 70.09L51.18 63.31C52.88 63.01 57.93 61.7 60.96 56.31C61.88 55.73 64.32 53.91 65.22 50.58C68.05 51.29 72.47 54.09 74.13 55.26C74.28 55.36 74.45 55.41 74.62 55.41C74.9 55.41 75.17 55.27 75.33 55.02C75.6 54.61 75.5 54.06 75.1 53.79C74.84 53.6 69.31 49.76 65.51 48.83C65.54 48.43 65.55 48.03 65.54 47.62C68.31 47.37 73.12 48.53 74.96 49.07C75.04 49.09 75.12 49.1 75.2 49.1C75.58 49.1 75.92 48.85 76.03 48.46C76.16 47.99 75.9 47.5 75.44 47.36C74.72 47.15 68.97 45.51 65.35 45.86C65.24 45.3 65.1 44.73 64.91 44.16C67.97 42.66 73.96 40.16 76.82 40.82C77.28 40.93 77.75 40.63 77.85 40.15C77.95 39.67 77.66 39.2 77.19 39.09L77.2 39.05ZM55.58 5.01998C56.52 6.93998 58.22 11.68 56.76 19.03C56.47 19.03 56.18 19.02 55.88 19.02C55.53 18.42 55.16 17.84 54.77 17.27C55.36 17.04 55.92 15.99 55.89 15.1L55.6 7.61998C55.6 7.61998 55.43 7.31998 55.11 7.82998C54.9 8.16998 53.85 12.28 53.14 15.09C51.91 13.61 50.59 12.35 49.21 11.32L55.58 5.01998ZM39.98 10.54C42.29 10.61 44.52 11.3 46.61 12.59C48.49 13.75 50.26 15.4 51.86 17.48C52.08 17.76 52.27 18.02 52.43 18.26C52.62 18.53 52.81 18.81 52.99 19.09C52.59 19.11 52.19 19.14 51.79 19.17H51.77C50.85 19.25 49.94 19.36 49.06 19.49C49.5 18.95 49.76 18.26 49.76 17.51C49.76 15.8 48.4 14.41 46.73 14.41C45.06 14.41 43.71 15.8 43.71 17.51C43.71 18.71 44.39 19.76 45.37 20.27C43.87 20.67 42.17 21.21 40.31 21.89C37.92 19.08 34.17 14.73 31.03 11.37C33.94 10.74 37 10.44 39.99 10.54H39.98ZM21.22 14.8C21.55 11.28 22.11 9.30998 22.38 8.89998C22.67 8.45998 22.88 8.09998 23.05 7.81998C23.1 7.84998 23.16 7.87998 23.21 7.90998C23.52 8.07998 23.91 8.29998 24.41 8.55998C24.65 8.67998 25.46 9.21998 27.74 11.56C27.76 11.58 27.77 11.59 27.79 11.61C30.87 14.77 35.03 19.57 37.82 22.83C32.41 24.94 26.74 27.63 22.51 29.75C20.88 26.04 20.77 19.55 21.21 14.8H21.22ZM14.58 33.03C14.4 32.88 12.93 31.32 15.87 21.94C16.36 20.37 17.26 18.9 18.56 17.56C18.38 22.25 18.78 27.43 20.3 30.86C18.6 31.73 17.96 32.08 17.93 32.1C17.92 32.1 17.91 32.11 17.9 32.12C16 33.24 14.94 33.32 14.59 33.03H14.58ZM46.24 75.38C46.24 75.38 46.17 75.4 46.11 75.41C46.11 75.41 46.02 75.43 45.76 75.33C44.48 74.85 43.47 73.72 42.4 72.52C41.75 71.79 41.08 71.04 40.31 70.4C38.31 68.74 36.11 67.35 33.76 66.25C30.35 64.67 26.76 63.52 23.28 62.42L22.41 62.14C19.64 61.26 16.75 60.44 13.82 59.7C13.42 59.6 12.99 59.54 12.54 59.46C11.83 59.35 11.02 59.23 10.61 58.99C10.04 58.66 9.49 58.37 9.02 58.12C6.64 56.84 5.44 56.2 4.6 53.37C4.27 52.28 5.08 51.34 6.15 50.61C6.87 52.86 8.88 54.96 12.14 56.85C15.07 58.55 17.96 59.47 18.09 59.51C18.21 59.55 18.33 59.57 18.45 59.57C18.98 59.57 19.47 59.22 19.63 58.67C19.83 58 19.46 57.29 18.81 57.09C15.88 56.16 8.29 52.85 8.31 48.65C8.31 48.35 8.35 48.04 8.43 47.73C8.76 46.46 9.18 45.43 9.67 44.69C10.22 45.88 11.42 47.3 13.37 49.12C13.37 49.12 13.38 49.13 13.39 49.14C18.3 53.71 26.18 59 26.51 59.22C26.54 59.24 26.58 59.26 26.62 59.28C27.85 59.94 29.14 60.66 30.68 61.56C34.55 63.82 37.42 65.7 40 67.66C41.78 69.01 43.09 70.22 44.13 71.48C45.42 73.04 46.3 74.79 46.26 75.37L46.24 75.38ZM62.85 49.8C62.07 52.8 59.5 54.21 59.47 54.23C59.25 54.35 59.07 54.53 58.95 54.75C56.04 60.24 50.62 60.81 50.39 60.83C50.05 60.86 49.72 61.04 49.51 61.32L44.42 68.18C43.57 67.35 42.59 66.52 41.43 65.64C38.77 63.62 35.82 61.69 31.87 59.38C30.33 58.48 29.03 57.75 27.78 57.08C27.13 56.64 20.35 52.04 15.76 47.95C16.6 46.28 17.48 43.76 17.73 40.25C17.85 38.63 17.82 36.89 17.66 35.08C18.27 34.81 18.78 34.51 19.09 34.33C19.22 34.26 20.18 33.75 22.52 32.56C27.2 30.2 34.08 26.89 40.34 24.57C42.94 23.6 45.2 22.89 47.06 22.46C48.55 22.11 50.12 21.87 51.74 21.72C55.47 22.88 57.63 26.45 58.88 30.18C58.88 30.21 58.9 30.24 58.91 30.27C59.17 31.06 59.39 31.85 59.58 32.63L56.93 31.85C56.93 31.85 56.87 31.84 56.84 31.83C56.82 31.83 56.79 31.82 56.77 31.81C56.7 31.8 56.63 31.79 56.56 31.79C56.54 31.79 56.52 31.79 56.5 31.79C56.44 31.79 56.39 31.8 56.33 31.81C56.32 31.81 56.31 31.81 56.29 31.81C56.28 31.81 56.27 31.81 56.26 31.82C56.2 31.84 56.14 31.86 56.08 31.89C56.06 31.89 56.05 31.91 56.03 31.91C55.98 31.94 55.92 31.97 55.87 32C55.85 32.02 55.83 32.04 55.8 32.05C55.77 32.08 55.73 32.11 55.7 32.14C55.68 32.16 55.66 32.18 55.64 32.2C55.64 32.2 55.63 32.21 55.62 32.22L53.34 34.98C52.9 35.52 52.96 36.31 53.49 36.77C53.72 36.97 54 37.07 54.29 37.07C54.64 37.07 54.99 36.92 55.23 36.62L55.93 35.78L56.27 37.25C56.4 37.83 56.91 38.23 57.47 38.23C57.56 38.23 57.66 38.22 57.76 38.19C58.42 38.03 58.84 37.35 58.68 36.67L58.27 34.87L60.12 35.42C60.57 38.3 60.59 40.49 60.59 40.55C60.59 40.79 60.66 41.03 60.78 41.23C62.78 44.45 63.47 47.33 62.83 49.78L62.85 49.8Z" fill="#0F0C11"/>
<path d="M28.4 24.48L31.24 23.56C32.76 23.07 33.32 21.17 32.33 19.89L25.83 11.58L24.44 9.80999C24.44 9.80999 23.7 9.48999 23.38 10.36C23.15 11 24.67 18.68 25.51 22.75C25.79 24.09 27.13 24.9 28.41 24.48H28.4Z" fill="#0F0C11"/>
<path d="M44.65 46.57C45.03 46.57 45.38 46.31 45.49 45.91C45.61 45.44 45.34 44.95 44.87 44.83C44.38 44.7 32.9 41.62 27.1 42.03C26.62 42.06 26.26 42.49 26.3 42.98C26.33 43.47 26.74 43.84 27.22 43.8C32.74 43.41 44.31 46.51 44.43 46.54C44.5 46.56 44.58 46.57 44.65 46.57Z" fill="#0F0C11"/>
<path d="M45.52 49.04C45.49 48.55 45.08 48.18 44.61 48.21C44.17 48.24 33.9 48.88 30.23 51.67C29.85 51.96 29.77 52.52 30.05 52.91C30.22 53.14 30.48 53.27 30.75 53.27C30.93 53.27 31.11 53.21 31.27 53.1C34.52 50.63 44.62 49.99 44.72 49.98C45.2 49.95 45.56 49.53 45.53 49.04H45.52Z" fill="#0F0C11"/>
<path d="M44.58 51.86C44.31 51.94 37.87 53.9 35.78 57.12C35.51 57.53 35.62 58.08 36.02 58.35C36.17 58.45 36.33 58.5 36.5 58.5C36.78 58.5 37.05 58.36 37.22 58.1C38.67 55.88 43.38 54.07 45.07 53.56C45.53 53.42 45.79 52.93 45.66 52.46C45.53 51.99 45.04 51.72 44.59 51.86H44.58Z" fill="#0F0C11"/>
<path d="M48.81 34.71L44.09 32.16C44.03 32.13 43.97 32.11 43.92 32.08C43.9 32.08 43.89 32.07 43.87 32.06C43.81 32.04 43.76 32.03 43.7 32.02C43.69 32.02 43.67 32.02 43.66 32.02C43.59 32.02 43.52 32.02 43.44 32.02C43.44 32.02 43.43 32.02 43.42 32.02C43.42 32.02 43.4 32.02 43.39 32.02C43.32 32.02 43.25 32.04 43.19 32.06C43.19 32.06 43.18 32.06 43.17 32.06C43.1 32.08 43.04 32.11 42.97 32.14C42.95 32.14 42.93 32.16 42.92 32.17C42.9 32.17 42.89 32.19 42.87 32.2L37.05 35.9C36.47 36.27 36.29 37.05 36.65 37.65C36.88 38.04 37.29 38.25 37.7 38.25C37.92 38.25 38.15 38.19 38.35 38.06L42.45 35.45L42.71 38.6C42.76 39.26 43.3 39.76 43.94 39.76C43.97 39.76 44.01 39.76 44.04 39.76C44.72 39.7 45.23 39.09 45.17 38.39L44.93 35.48L47.65 36.95C48.25 37.28 49 37.04 49.32 36.42C49.64 35.8 49.41 35.03 48.8 34.71H48.81Z" fill="#0F0C11"/>
<path d="M58.82 42.28C58.82 42.28 58.79 42.28 58.77 42.28L56.08 42.41C55.53 42.41 54.3 42.43 54.1 43.42C54.02 43.79 53.87 44.55 56.18 45.68C56.39 46.67 56.29 47.48 55.88 48.1C55.14 49.24 53.56 49.47 53.55 49.47C53.08 49.53 52.74 49.97 52.8 50.46C52.85 50.91 53.23 51.24 53.66 51.24C53.7 51.24 53.73 51.24 53.77 51.24C53.87 51.23 56.14 50.92 57.33 49.1C57.51 48.83 57.65 48.54 57.76 48.24C58.38 50.18 59.86 50.79 59.95 50.83C60.4 51.01 60.9 50.78 61.07 50.32C61.24 49.87 61.02 49.36 60.59 49.18C60.5 49.14 58.95 48.4 59.27 45.63C61.18 44.45 60.97 43.62 60.9 43.34C60.64 42.3 59.31 42.3 58.81 42.3L58.82 42.28Z" fill="#0F0C11"/>
</g>
<defs>
<clipPath id="clip0_2_31">
<rect width="79.9" height="79.98" fill="white"/>
</clipPath>
</defs>
</svg>
