<svg width="99" height="25" viewBox="0 0 99 25" fill="none" xmlns="http://www.w3.org/2000/svg">
<path d="M25 12.5C25 13.515 22.55 14.19 22.3 15.125C22.05 16.06 23.815 17.9 23.325 18.75C22.83 19.61 20.37 18.975 19.67 19.67C18.97 20.365 19.605 22.825 18.75 23.325C17.905 23.815 16.095 22.04 15.125 22.3C14.155 22.56 13.51 25 12.5 25C11.49 25 10.81 22.55 9.875 22.3C8.91 22.04 7.1 23.815 6.25 23.325C5.39 22.83 6.025 20.37 5.33 19.67C4.635 18.975 2.175 19.605 1.675 18.75C1.185 17.905 2.96 16.095 2.7 15.125C2.44 14.155 0 13.515 0 12.5C0 11.485 2.45 10.81 2.7 9.875C2.95 8.94 1.185 7.1 1.675 6.25C2.165 5.4 4.63 6.025 5.33 5.33C6.025 4.635 5.395 2.175 6.25 1.675C7.095 1.185 8.905 2.96 9.875 2.7C10.845 2.44 11.485 0 12.5 0C13.515 0 14.19 2.45 15.125 2.7C16.06 2.95 17.9 1.185 18.75 1.675C19.61 2.17 18.975 4.63 19.67 5.33C20.365 6.03 22.825 5.395 23.325 6.25C23.815 7.095 22.04 8.905 22.3 9.875C22.55 10.81 25 11.49 25 12.5Z" fill="#B617E6"/>
<path d="M86.5 25C93.4036 25 99 19.4036 99 12.5C99 5.59644 93.4036 0 86.5 0C79.5964 0 74 5.59644 74 12.5C74 19.4036 79.5964 25 86.5 25Z" fill="#FAAB00"/>
<path d="M60.6695 11.16H52.7413L58.3485 5.555C58.8737 5.03 58.8737 4.185 58.3485 3.66C57.8233 3.135 56.978 3.135 56.4528 3.66L50.8455 9.265V1.34C50.8455 0.6 50.2453 0 49.505 0C48.7647 0 48.1645 0.6 48.1645 1.34V9.265L42.5572 3.66C42.032 3.135 41.1867 3.135 40.6615 3.66C40.1363 4.185 40.1363 5.03 40.6615 5.555L46.2687 11.16H38.3405C37.6002 11.16 37 11.76 37 12.5C37 13.24 37.6002 13.84 38.3405 13.84H46.2687L40.6615 19.445C40.1363 19.97 40.1363 20.815 40.6615 21.34C40.9216 21.6 41.2667 21.73 41.6068 21.73C41.947 21.73 42.2921 21.6 42.5522 21.34L48.1595 15.735V23.66C48.1595 24.4 48.7597 25 49.5 25C50.2403 25 50.8405 24.4 50.8405 23.66V15.735L56.4478 21.34C56.7079 21.6 57.053 21.73 57.3932 21.73C57.7333 21.73 58.0784 21.6 58.3385 21.34C58.8637 20.815 58.8637 19.97 58.3385 19.445L52.7313 13.84H60.6595C61.3998 13.84 62 13.24 62 12.5C62 11.76 61.3998 11.16 60.6595 11.16H60.6695Z" fill="#F4F4F4"/>
</svg>
