<svg width="1278" height="262" viewBox="0 0 1278 262" fill="none" xmlns="http://www.w3.org/2000/svg">
<g clip-path="url(#clip0_96_294)">
<path d="M149.593 300C53.2497 300 -9 236.919 -9 139.306C-9 41.6936 59.2048 -23 156.837 -23C266.135 -23 295.144 43.6524 302.544 72.3069C303.572 76.2939 302.701 80.541 300.159 83.8172C297.617 87.0762 293.716 88.983 289.572 88.983H247.747C242.28 88.983 237.352 85.6721 235.315 80.6276C223.474 51.3664 196.938 36.5278 156.454 36.5278C85.6892 36.5278 60.4585 88.3763 60.4585 136.897C60.4585 200.533 96.9376 240.073 155.653 240.073C206.828 240.073 233.661 217.261 235.454 172.277H156.454C149.053 172.277 143.046 166.296 143.046 158.929V124.901C143.046 117.534 149.053 111.553 156.454 111.553H287.97C295.37 111.553 301.378 117.534 301.378 124.901V280.654C301.378 288.022 295.37 294.002 287.97 294.002H256.993C250.446 294.002 244.839 289.287 243.76 282.856C243.359 280.481 242.907 276.789 242.454 272.438C220.201 291.333 190.321 300.017 149.593 300.017V300Z" fill="#0F0C11"/>
<path d="M287.953 280.637H256.976C255.774 273.426 253.755 251.012 253.755 238.6C234.845 269.04 205.487 286.652 149.576 286.652C59.4833 286.652 4.3902 227.783 4.3902 139.306C4.40761 55.6136 61.5206 -9.6521 156.837 -9.6521C242.106 -9.6521 278.707 33.5983 289.555 75.6353H247.73C236.864 48.801 211.93 23.1801 156.436 23.1801C84.8534 23.1801 47.0334 73.2258 47.0334 136.897C47.0334 204.156 85.2364 253.421 155.635 253.421C215.169 253.421 248.949 223.397 248.949 167.337V158.929H156.436V124.901H287.953V280.654V280.637Z" fill="#0F0C11"/>
<path d="M447.643 299.601C368.346 299.601 326.852 239.103 326.852 179.35C326.852 109.664 378.498 59.0979 449.663 59.0979C529.22 59.0979 570.854 119.596 570.854 179.35C570.854 211.662 559.849 241.339 539.842 262.886C517.554 286.912 485.672 299.601 447.643 299.601ZM448.043 117.014C407.524 117.014 393.072 149.204 393.072 179.35C393.072 209.495 410.519 241.686 448.844 241.686C500.594 241.686 504.617 194.292 504.617 179.748C504.617 148.528 487.117 117.014 448.043 117.014Z" fill="#0F0C11"/>
<path d="M557.446 179.332C557.446 235.393 520.845 286.236 447.643 286.236C378.863 286.236 340.26 235.393 340.26 179.332C340.26 123.271 381.284 72.4282 449.663 72.4282C518.042 72.4282 557.446 125.681 557.446 179.332ZM379.664 179.332C379.664 218.18 404.199 255.016 448.844 255.016C493.49 255.016 518.024 220.589 518.024 179.731C518.024 138.873 493.49 103.648 448.043 103.648C402.597 103.648 379.664 138.89 379.664 179.332Z" fill="#0F0C11"/>
<path d="M759.361 293.985C751.961 293.985 745.954 288.004 745.954 280.637V164.112C745.954 123.063 726.034 117.793 708.691 117.793C665.421 117.793 658.961 158.86 658.961 183.319V280.62C658.961 287.987 652.954 293.967 645.553 293.967H607.35C599.95 293.967 593.943 287.987 593.943 280.62V129.269C593.943 112.454 593.943 93.4033 593.542 78.374C593.455 74.7683 594.813 71.2841 597.338 68.7012C599.863 66.1183 603.328 64.6621 606.95 64.6621H643.951C650.742 64.6621 656.471 69.7239 657.272 76.4498C657.359 77.1952 657.446 78.01 657.533 78.9114C671.045 68.0251 690.791 59.063 719.173 59.063C776.06 59.063 811.407 96.6969 811.407 157.3V280.62C811.407 287.987 805.4 293.967 798 293.967H759.396L759.361 293.985Z" fill="#0F0C11"/>
<path d="M607.333 129.286C607.333 112.073 607.333 93.2474 606.932 78.0274H643.934C644.735 84.84 645.536 101.655 645.536 115.661C654.381 96.0383 675.694 72.4109 719.139 72.4109C767.005 72.4109 797.965 101.637 797.965 157.3V280.62H759.361V164.095C759.361 130.864 746.894 104.428 708.691 104.428C666.466 104.428 645.553 136.463 645.553 183.302V280.602H607.35V129.252L607.333 129.286Z" fill="#0F0C11"/>
<path d="M843.429 293.985C836.029 293.985 830.021 288.004 830.021 280.637V252.208C830.021 248.706 831.397 245.361 833.852 242.864L952.675 122.214H851.073C843.673 122.214 837.665 116.233 837.665 108.866V78.0275C837.665 70.6602 843.673 64.6797 851.073 64.6797H1033.68C1041.08 64.6797 1047.09 70.6602 1047.09 78.0275V107.254C1047.09 110.738 1045.71 114.084 1043.27 116.58L925.982 236.052H1042.94C1046.95 236.052 1050.72 237.837 1053.28 240.906C1055.83 243.974 1056.87 248.013 1056.12 251.931L1050.1 283.168C1048.88 289.46 1043.36 294.002 1036.93 294.002H843.481L843.429 293.985Z" fill="#0F0C11"/>
<path d="M843.429 252.208L984.592 108.866H851.056V78.0273H1033.66V107.254L894.099 249.4H1042.91L1036.88 280.637H843.429V252.208Z" fill="#0F0C11"/>
<path d="M1083.67 293.985C1076.27 293.985 1070.26 288.004 1070.26 280.637V252.208C1070.26 248.706 1071.64 245.361 1074.09 242.864L1192.92 122.214H1091.31C1083.91 122.214 1077.91 116.233 1077.91 108.866V78.0275C1077.91 70.6602 1083.91 64.6797 1091.31 64.6797H1273.92C1281.32 64.6797 1287.33 70.6602 1287.33 78.0275V107.254C1287.33 110.738 1285.95 114.084 1283.51 116.58L1166.22 236.052H1283.18C1287.19 236.052 1290.96 237.837 1293.52 240.906C1296.07 243.974 1297.11 248.013 1296.36 251.931L1290.34 283.168C1289.12 289.46 1283.6 294.002 1277.17 294.002H1083.72L1083.67 293.985Z" fill="#0F0C11"/>
<path d="M1083.67 252.208L1224.83 108.866H1091.3V78.0273H1273.9V107.254L1134.34 249.4H1283.15L1277.12 280.637H1083.67V252.208Z" fill="#0F0C11"/>
</g>
<defs>
<clipPath id="clip0_96_294">
<rect width="1393" height="323" fill="white" transform="translate(-9 -23)"/>
</clipPath>
</defs>
</svg>
